<svg xmlns="http://www.w3.org/2000/svg" xmlns:xlink="http://www.w3.org/1999/xlink" width="1024" zoomAndPan="magnify" viewBox="0 0 768 767.999994" height="1024" preserveAspectRatio="xMidYMid meet" version="1.0"><defs><g><g id="id1"/></g></defs><rect x="-76.8" width="921.6" fill="rgb(100%, 100%, 100%)" y="-76.799999" height="921.599993" fill-opacity="1"/><rect x="-76.8" width="921.6" fill="rgb(100%, 100%, 100%)" y="-76.799999" height="921.599993" fill-opacity="1"/><rect x="-76.8" width="921.6" fill="rgb(26.669312%, 34.509277%, 74.508667%)" y="-76.799999" height="921.599993" fill-opacity="1"/><g fill="rgb(100%, 100%, 100%)" fill-opacity="1"><g transform="translate(222.701831, 444.749998)"><g><path d="M 45.40625 -121.59375 L 45.40625 -81.5 L 97.59375 -81.5 L 97.59375 -57.90625 L 45.40625 -57.90625 L 45.40625 0 L 15.203125 0 L 15.203125 -145.09375 L 107.59375 -145.09375 L 107.59375 -121.59375 Z M 45.40625 -121.59375 "/></g></g></g><g fill="rgb(100%, 100%, 100%)" fill-opacity="1"><g transform="translate(335.899229, 444.749998)"><g><path d="M 7.5 -14.5 C 7.5 -16.695312 7.914062 -18.78125 8.75 -20.75 C 9.582031 -22.71875 10.734375 -24.414062 12.203125 -25.84375 C 13.671875 -27.28125 15.382812 -28.414062 17.34375 -29.25 C 19.3125 -30.082031 21.460938 -30.5 23.796875 -30.5 C 26.066406 -30.5 28.203125 -30.082031 30.203125 -29.25 C 32.203125 -28.414062 33.929688 -27.28125 35.390625 -25.84375 C 36.859375 -24.414062 38.007812 -22.71875 38.84375 -20.75 C 39.675781 -18.78125 40.09375 -16.695312 40.09375 -14.5 C 40.09375 -12.226562 39.675781 -10.125 38.84375 -8.1875 C 38.007812 -6.257812 36.859375 -4.578125 35.390625 -3.140625 C 33.929688 -1.710938 32.203125 -0.597656 30.203125 0.203125 C 28.203125 1.003906 26.066406 1.40625 23.796875 1.40625 C 21.460938 1.40625 19.3125 1.003906 17.34375 0.203125 C 15.382812 -0.597656 13.671875 -1.710938 12.203125 -3.140625 C 10.734375 -4.578125 9.582031 -6.257812 8.75 -8.1875 C 7.914062 -10.125 7.5 -12.226562 7.5 -14.5 Z M 7.5 -14.5 "/></g></g></g><g fill="rgb(100%, 100%, 100%)" fill-opacity="1"><g transform="translate(383.498111, 444.749998)"><g><path d="M 75.09375 -76.296875 C 72.5 -79.296875 69.679688 -81.394531 66.640625 -82.59375 C 63.609375 -83.800781 60.394531 -84.40625 57 -84.40625 C 53.664062 -84.40625 50.628906 -83.769531 47.890625 -82.5 C 45.160156 -81.226562 42.8125 -79.242188 40.84375 -76.546875 C 38.882812 -73.847656 37.367188 -70.398438 36.296875 -66.203125 C 35.234375 -62.003906 34.703125 -57.003906 34.703125 -51.203125 C 34.703125 -45.460938 35.132812 -40.59375 36 -36.59375 C 36.863281 -32.59375 38.113281 -29.359375 39.75 -26.890625 C 41.382812 -24.429688 43.367188 -22.648438 45.703125 -21.546875 C 48.035156 -20.453125 50.632812 -19.90625 53.5 -19.90625 C 58.363281 -19.90625 62.445312 -20.867188 65.75 -22.796875 C 69.050781 -24.734375 72.164062 -27.46875 75.09375 -31 Z M 102.703125 -149.09375 L 102.703125 0 L 85.703125 0 C 82.171875 0 79.90625 -1.597656 78.90625 -4.796875 L 76.59375 -13.796875 C 74.53125 -11.535156 72.347656 -9.46875 70.046875 -7.59375 C 67.742188 -5.726562 65.257812 -4.113281 62.59375 -2.75 C 59.925781 -1.382812 57.0625 -0.335938 54 0.390625 C 50.9375 1.128906 47.601562 1.5 44 1.5 C 38.46875 1.5 33.398438 0.332031 28.796875 -2 C 24.203125 -4.332031 20.21875 -7.75 16.84375 -12.25 C 13.476562 -16.75 10.863281 -22.265625 9 -28.796875 C 7.132812 -35.328125 6.203125 -42.796875 6.203125 -51.203125 C 6.203125 -58.867188 7.25 -66 9.34375 -72.59375 C 11.445312 -79.195312 14.429688 -84.898438 18.296875 -89.703125 C 22.160156 -94.503906 26.828125 -98.269531 32.296875 -101 C 37.765625 -103.726562 43.832031 -105.09375 50.5 -105.09375 C 56.101562 -105.09375 60.820312 -104.257812 64.65625 -102.59375 C 68.488281 -100.925781 71.96875 -98.660156 75.09375 -95.796875 L 75.09375 -149.09375 Z M 102.703125 -149.09375 "/></g></g></g><g fill="rgb(100%, 100%, 100%)" fill-opacity="1"><g transform="translate(497.69547, 444.749998)"><g><path d="M 7.5 -14.5 C 7.5 -16.695312 7.914062 -18.78125 8.75 -20.75 C 9.582031 -22.71875 10.734375 -24.414062 12.203125 -25.84375 C 13.671875 -27.28125 15.382812 -28.414062 17.34375 -29.25 C 19.3125 -30.082031 21.460938 -30.5 23.796875 -30.5 C 26.066406 -30.5 28.203125 -30.082031 30.203125 -29.25 C 32.203125 -28.414062 33.929688 -27.28125 35.390625 -25.84375 C 36.859375 -24.414062 38.007812 -22.71875 38.84375 -20.75 C 39.675781 -18.78125 40.09375 -16.695312 40.09375 -14.5 C 40.09375 -12.226562 39.675781 -10.125 38.84375 -8.1875 C 38.007812 -6.257812 36.859375 -4.578125 35.390625 -3.140625 C 33.929688 -1.710938 32.203125 -0.597656 30.203125 0.203125 C 28.203125 1.003906 26.066406 1.40625 23.796875 1.40625 C 21.460938 1.40625 19.3125 1.003906 17.34375 0.203125 C 15.382812 -0.597656 13.671875 -1.710938 12.203125 -3.140625 C 10.734375 -4.578125 9.582031 -6.257812 8.75 -8.1875 C 7.914062 -10.125 7.5 -12.226562 7.5 -14.5 Z M 7.5 -14.5 "/></g></g></g></svg>