<svg xmlns="http://www.w3.org/2000/svg" xmlns:xlink="http://www.w3.org/1999/xlink" width="1024" zoomAndPan="magnify" viewBox="0 0 768 767.999994" height="1024" preserveAspectRatio="xMidYMid meet" version="1.0"><defs><g><g id="id1"/><g id="id2"/></g></defs><rect x="-76.8" width="921.6" fill="rgb(100%, 100%, 100%)" y="-76.799999" height="921.599993" fill-opacity="1"/><rect x="-76.8" width="921.6" fill="rgb(26.669312%, 34.509277%, 74.508667%)" y="-76.799999" height="921.599993" fill-opacity="1"/><g fill="rgb(100%, 100%, 100%)" fill-opacity="1"><g transform="translate(120.455739, 418.654336)"><g><path d="M 70.90625 -23 C 75.695312 -23 79.644531 -23.582031 82.75 -24.75 C 85.851562 -25.914062 88.335938 -27.460938 90.203125 -29.390625 C 92.066406 -31.328125 93.363281 -33.546875 94.09375 -36.046875 C 94.832031 -38.546875 95.203125 -41.128906 95.203125 -43.796875 C 95.203125 -46.734375 94.765625 -49.367188 93.890625 -51.703125 C 93.023438 -54.035156 91.625 -56.015625 89.6875 -57.640625 C 87.757812 -59.273438 85.242188 -60.523438 82.140625 -61.390625 C 79.046875 -62.265625 75.234375 -62.703125 70.703125 -62.703125 L 45.203125 -62.703125 L 45.203125 -23 Z M 45.203125 -122.296875 L 45.203125 -83.09375 L 64.90625 -83.09375 C 69.101562 -83.09375 72.832031 -83.441406 76.09375 -84.140625 C 79.363281 -84.847656 82.097656 -85.96875 84.296875 -87.5 C 86.492188 -89.03125 88.175781 -91.046875 89.34375 -93.546875 C 90.507812 -96.046875 91.09375 -99.0625 91.09375 -102.59375 C 91.09375 -106.195312 90.609375 -109.265625 89.640625 -111.796875 C 88.679688 -114.328125 87.203125 -116.359375 85.203125 -117.890625 C 83.203125 -119.429688 80.664062 -120.550781 77.59375 -121.25 C 74.53125 -121.945312 70.898438 -122.296875 66.703125 -122.296875 Z M 66.703125 -145.09375 C 76.429688 -145.09375 84.742188 -144.175781 91.640625 -142.34375 C 98.546875 -140.507812 104.179688 -137.910156 108.546875 -134.546875 C 112.910156 -131.179688 116.09375 -127.097656 118.09375 -122.296875 C 120.09375 -117.492188 121.09375 -112.128906 121.09375 -106.203125 C 121.09375 -102.867188 120.609375 -99.664062 119.640625 -96.59375 C 118.679688 -93.53125 117.179688 -90.648438 115.140625 -87.953125 C 113.109375 -85.253906 110.492188 -82.800781 107.296875 -80.59375 C 104.097656 -78.394531 100.300781 -76.53125 95.90625 -75 C 105.769531 -72.664062 113.066406 -68.863281 117.796875 -63.59375 C 122.535156 -58.332031 124.90625 -51.5 124.90625 -43.09375 C 124.90625 -36.96875 123.71875 -31.269531 121.34375 -26 C 118.976562 -20.726562 115.53125 -16.160156 111 -12.296875 C 106.46875 -8.429688 100.882812 -5.414062 94.25 -3.25 C 87.613281 -1.082031 80 0 71.40625 0 L 15.203125 0 L 15.203125 -145.09375 Z M 66.703125 -145.09375 "/></g></g></g><g fill="rgb(100%, 100%, 100%)" fill-opacity="1"><g transform="translate(253.152662, 418.654336)"><g><path d="M 114 -35.703125 C 115.664062 -35.703125 117.066406 -35.101562 118.203125 -33.90625 L 130.09375 -21.203125 C 124.226562 -13.734375 116.945312 -8.066406 108.25 -4.203125 C 99.550781 -0.335938 89.203125 1.59375 77.203125 1.59375 C 66.335938 1.59375 56.570312 -0.253906 47.90625 -3.953125 C 39.238281 -7.648438 31.867188 -12.796875 25.796875 -19.390625 C 19.734375 -25.992188 15.066406 -33.828125 11.796875 -42.890625 C 8.535156 -51.960938 6.90625 -61.863281 6.90625 -72.59375 C 6.90625 -79.800781 7.6875 -86.65625 9.25 -93.15625 C 10.8125 -99.65625 13.09375 -105.632812 16.09375 -111.09375 C 19.09375 -116.5625 22.707031 -121.492188 26.9375 -125.890625 C 31.175781 -130.296875 35.960938 -134.046875 41.296875 -137.140625 C 46.628906 -140.242188 52.445312 -142.613281 58.75 -144.25 C 65.050781 -145.882812 71.769531 -146.703125 78.90625 -146.703125 C 84.238281 -146.703125 89.285156 -146.234375 94.046875 -145.296875 C 98.816406 -144.367188 103.265625 -143.070312 107.390625 -141.40625 C 111.523438 -139.738281 115.34375 -137.71875 118.84375 -135.34375 C 122.34375 -132.976562 125.492188 -130.394531 128.296875 -127.59375 L 118.203125 -113.796875 C 117.597656 -112.929688 116.828125 -112.164062 115.890625 -111.5 C 114.960938 -110.832031 113.695312 -110.5 112.09375 -110.5 C 110.5 -110.5 108.882812 -111.066406 107.25 -112.203125 C 105.613281 -113.335938 103.613281 -114.601562 101.25 -116 C 98.882812 -117.394531 95.914062 -118.660156 92.34375 -119.796875 C 88.78125 -120.929688 84.265625 -121.5 78.796875 -121.5 C 72.734375 -121.5 67.164062 -120.398438 62.09375 -118.203125 C 57.03125 -116.003906 52.679688 -112.820312 49.046875 -108.65625 C 45.410156 -104.488281 42.59375 -99.367188 40.59375 -93.296875 C 38.59375 -87.234375 37.59375 -80.332031 37.59375 -72.59375 C 37.59375 -64.800781 38.675781 -57.851562 40.84375 -51.75 C 43.007812 -45.644531 45.976562 -40.492188 49.75 -36.296875 C 53.519531 -32.097656 57.921875 -28.914062 62.953125 -26.75 C 67.984375 -24.582031 73.363281 -23.5 79.09375 -23.5 C 82.5 -23.5 85.582031 -23.664062 88.34375 -24 C 91.113281 -24.332031 93.679688 -24.898438 96.046875 -25.703125 C 98.410156 -26.503906 100.644531 -27.535156 102.75 -28.796875 C 104.851562 -30.066406 106.96875 -31.664062 109.09375 -33.59375 C 109.832031 -34.195312 110.597656 -34.695312 111.390625 -35.09375 C 112.191406 -35.5 113.0625 -35.703125 114 -35.703125 Z M 114 -35.703125 "/></g></g></g><g fill="rgb(100%, 100%, 100%)" fill-opacity="1"><g transform="translate(384.949646, 418.654336)"><g><path d="M 70.90625 -23 C 75.695312 -23 79.644531 -23.582031 82.75 -24.75 C 85.851562 -25.914062 88.335938 -27.460938 90.203125 -29.390625 C 92.066406 -31.328125 93.363281 -33.546875 94.09375 -36.046875 C 94.832031 -38.546875 95.203125 -41.128906 95.203125 -43.796875 C 95.203125 -46.734375 94.765625 -49.367188 93.890625 -51.703125 C 93.023438 -54.035156 91.625 -56.015625 89.6875 -57.640625 C 87.757812 -59.273438 85.242188 -60.523438 82.140625 -61.390625 C 79.046875 -62.265625 75.234375 -62.703125 70.703125 -62.703125 L 45.203125 -62.703125 L 45.203125 -23 Z M 45.203125 -122.296875 L 45.203125 -83.09375 L 64.90625 -83.09375 C 69.101562 -83.09375 72.832031 -83.441406 76.09375 -84.140625 C 79.363281 -84.847656 82.097656 -85.96875 84.296875 -87.5 C 86.492188 -89.03125 88.175781 -91.046875 89.34375 -93.546875 C 90.507812 -96.046875 91.09375 -99.0625 91.09375 -102.59375 C 91.09375 -106.195312 90.609375 -109.265625 89.640625 -111.796875 C 88.679688 -114.328125 87.203125 -116.359375 85.203125 -117.890625 C 83.203125 -119.429688 80.664062 -120.550781 77.59375 -121.25 C 74.53125 -121.945312 70.898438 -122.296875 66.703125 -122.296875 Z M 66.703125 -145.09375 C 76.429688 -145.09375 84.742188 -144.175781 91.640625 -142.34375 C 98.546875 -140.507812 104.179688 -137.910156 108.546875 -134.546875 C 112.910156 -131.179688 116.09375 -127.097656 118.09375 -122.296875 C 120.09375 -117.492188 121.09375 -112.128906 121.09375 -106.203125 C 121.09375 -102.867188 120.609375 -99.664062 119.640625 -96.59375 C 118.679688 -93.53125 117.179688 -90.648438 115.140625 -87.953125 C 113.109375 -85.253906 110.492188 -82.800781 107.296875 -80.59375 C 104.097656 -78.394531 100.300781 -76.53125 95.90625 -75 C 105.769531 -72.664062 113.066406 -68.863281 117.796875 -63.59375 C 122.535156 -58.332031 124.90625 -51.5 124.90625 -43.09375 C 124.90625 -36.96875 123.71875 -31.269531 121.34375 -26 C 118.976562 -20.726562 115.53125 -16.160156 111 -12.296875 C 106.46875 -8.429688 100.882812 -5.414062 94.25 -3.25 C 87.613281 -1.082031 80 0 71.40625 0 L 15.203125 0 L 15.203125 -145.09375 Z M 66.703125 -145.09375 "/></g></g></g><g fill="rgb(100%, 100%, 100%)" fill-opacity="1"><g transform="translate(517.646584, 418.654336)"><g><path d="M 60.59375 -76.40625 C 65.46875 -76.40625 69.671875 -77.019531 73.203125 -78.25 C 76.734375 -79.476562 79.628906 -81.175781 81.890625 -83.34375 C 84.160156 -85.507812 85.828125 -88.0625 86.890625 -91 C 87.960938 -93.9375 88.5 -97.132812 88.5 -100.59375 C 88.5 -107.46875 86.210938 -112.800781 81.640625 -116.59375 C 77.078125 -120.394531 70.128906 -122.296875 60.796875 -122.296875 L 45.203125 -122.296875 L 45.203125 -76.40625 Z M 130.90625 0 L 103.796875 0 C 98.734375 0 95.066406 -1.929688 92.796875 -5.796875 L 65.203125 -50.296875 C 64.066406 -52.035156 62.816406 -53.300781 61.453125 -54.09375 C 60.085938 -54.894531 58.070312 -55.296875 55.40625 -55.296875 L 45.203125 -55.296875 L 45.203125 0 L 15.203125 0 L 15.203125 -145.09375 L 60.796875 -145.09375 C 70.929688 -145.09375 79.597656 -144.039062 86.796875 -141.9375 C 93.992188 -139.84375 99.894531 -136.925781 104.5 -133.1875 C 109.101562 -129.457031 112.46875 -125.007812 114.59375 -119.84375 C 116.726562 -114.675781 117.796875 -108.992188 117.796875 -102.796875 C 117.796875 -97.992188 117.113281 -93.441406 115.75 -89.140625 C 114.382812 -84.847656 112.398438 -80.929688 109.796875 -77.390625 C 107.203125 -73.859375 104.003906 -70.726562 100.203125 -68 C 96.398438 -65.269531 92.066406 -63.070312 87.203125 -61.40625 C 89.128906 -60.332031 90.925781 -59.046875 92.59375 -57.546875 C 94.257812 -56.046875 95.757812 -54.265625 97.09375 -52.203125 Z M 130.90625 0 "/></g></g></g><g fill="rgb(100%, 100%, 100%)" fill-opacity="1"><g transform="translate(302.846355, 618.154326)"><g><path d="M 37.5 -72.59375 C 37.5 -64.925781 38.5 -58.078125 40.5 -52.046875 C 42.5 -46.015625 45.378906 -40.898438 49.140625 -36.703125 C 52.910156 -32.503906 57.492188 -29.285156 62.890625 -27.046875 C 68.296875 -24.816406 74.398438 -23.703125 81.203125 -23.703125 C 88.003906 -23.703125 94.085938 -24.816406 99.453125 -27.046875 C 104.816406 -29.285156 109.378906 -32.503906 113.140625 -36.703125 C 116.910156 -40.898438 119.796875 -46.015625 121.796875 -52.046875 C 123.796875 -58.078125 124.796875 -64.925781 124.796875 -72.59375 C 124.796875 -80.195312 123.796875 -87.015625 121.796875 -93.046875 C 119.796875 -99.078125 116.910156 -104.207031 113.140625 -108.4375 C 109.378906 -112.675781 104.816406 -115.910156 99.453125 -118.140625 C 94.085938 -120.378906 88.003906 -121.5 81.203125 -121.5 C 74.398438 -121.5 68.296875 -120.378906 62.890625 -118.140625 C 57.492188 -115.910156 52.910156 -112.675781 49.140625 -108.4375 C 45.378906 -104.207031 42.5 -99.078125 40.5 -93.046875 C 38.5 -87.015625 37.5 -80.195312 37.5 -72.59375 Z M 163.296875 27.796875 L 138.59375 27.796875 C 135 27.796875 131.785156 27.328125 128.953125 26.390625 C 126.117188 25.460938 123.5 23.734375 121.09375 21.203125 L 101.40625 -0.703125 C 94.9375 0.828125 88.203125 1.59375 81.203125 1.59375 C 70.066406 1.59375 59.929688 -0.285156 50.796875 -4.046875 C 41.660156 -7.816406 33.828125 -13 27.296875 -19.59375 C 20.765625 -26.195312 15.710938 -34.03125 12.140625 -43.09375 C 8.578125 -52.164062 6.796875 -62 6.796875 -72.59375 C 6.796875 -83.195312 8.578125 -93.015625 12.140625 -102.046875 C 15.710938 -111.078125 20.765625 -118.894531 27.296875 -125.5 C 33.828125 -132.101562 41.660156 -137.285156 50.796875 -141.046875 C 59.929688 -144.816406 70.066406 -146.703125 81.203125 -146.703125 C 92.335938 -146.703125 102.46875 -144.816406 111.59375 -141.046875 C 120.726562 -137.285156 128.546875 -132.085938 135.046875 -125.453125 C 141.546875 -118.816406 146.578125 -110.984375 150.140625 -101.953125 C 153.710938 -92.921875 155.5 -83.132812 155.5 -72.59375 C 155.5 -66.195312 154.847656 -60.082031 153.546875 -54.25 C 152.242188 -48.414062 150.359375 -42.945312 147.890625 -37.84375 C 145.429688 -32.75 142.398438 -28.035156 138.796875 -23.703125 C 135.203125 -19.367188 131.132812 -15.566406 126.59375 -12.296875 Z M 163.296875 27.796875 "/></g></g></g><g fill="rgb(100%, 100%, 100%)" fill-opacity="1"><g transform="translate(321.179752, 185.550011)"><g><path d="M 4.5 -8.703125 C 4.5 -10.023438 4.75 -11.273438 5.25 -12.453125 C 5.75 -13.628906 6.4375 -14.644531 7.3125 -15.5 C 8.195312 -16.363281 9.226562 -17.046875 10.40625 -17.546875 C 11.59375 -18.046875 12.882812 -18.296875 14.28125 -18.296875 C 15.632812 -18.296875 16.910156 -18.046875 18.109375 -17.546875 C 19.316406 -17.046875 20.359375 -16.363281 21.234375 -15.5 C 22.117188 -14.644531 22.8125 -13.628906 23.3125 -12.453125 C 23.8125 -11.273438 24.0625 -10.023438 24.0625 -8.703125 C 24.0625 -7.335938 23.8125 -6.078125 23.3125 -4.921875 C 22.8125 -3.765625 22.117188 -2.753906 21.234375 -1.890625 C 20.359375 -1.023438 19.316406 -0.351562 18.109375 0.125 C 16.910156 0.601562 15.632812 0.84375 14.28125 0.84375 C 12.882812 0.84375 11.59375 0.601562 10.40625 0.125 C 9.226562 -0.351562 8.195312 -1.023438 7.3125 -1.890625 C 6.4375 -2.753906 5.75 -3.765625 5.25 -4.921875 C 4.75 -6.078125 4.5 -7.335938 4.5 -8.703125 Z M 4.5 -8.703125 "/></g></g></g><g fill="rgb(100%, 100%, 100%)" fill-opacity="1"><g transform="translate(349.739728, 185.550011)"><g><path d="M 45.0625 -45.78125 C 43.5 -47.582031 41.804688 -48.84375 39.984375 -49.5625 C 38.171875 -50.28125 36.242188 -50.640625 34.203125 -50.640625 C 32.203125 -50.640625 30.378906 -50.257812 28.734375 -49.5 C 27.097656 -48.738281 25.6875 -47.546875 24.5 -45.921875 C 23.320312 -44.304688 22.410156 -42.238281 21.765625 -39.71875 C 21.128906 -37.195312 20.8125 -34.195312 20.8125 -30.71875 C 20.8125 -27.28125 21.070312 -24.359375 21.59375 -21.953125 C 22.113281 -19.554688 22.863281 -17.617188 23.84375 -16.140625 C 24.820312 -14.660156 26.007812 -13.585938 27.40625 -12.921875 C 28.8125 -12.265625 30.375 -11.9375 32.09375 -11.9375 C 35.019531 -11.9375 37.472656 -12.515625 39.453125 -13.671875 C 41.429688 -14.835938 43.300781 -16.476562 45.0625 -18.59375 Z M 61.625 -89.453125 L 61.625 0 L 51.421875 0 C 49.296875 0 47.9375 -0.957031 47.34375 -2.875 L 45.953125 -8.28125 C 44.710938 -6.914062 43.398438 -5.671875 42.015625 -4.546875 C 40.640625 -3.429688 39.148438 -2.460938 37.546875 -1.640625 C 35.953125 -0.828125 34.234375 -0.203125 32.390625 0.234375 C 30.554688 0.679688 28.5625 0.90625 26.40625 0.90625 C 23.082031 0.90625 20.039062 0.207031 17.28125 -1.1875 C 14.519531 -2.59375 12.128906 -4.644531 10.109375 -7.34375 C 8.085938 -10.050781 6.515625 -13.363281 5.390625 -17.28125 C 4.273438 -21.195312 3.71875 -25.675781 3.71875 -30.71875 C 3.71875 -35.320312 4.347656 -39.601562 5.609375 -43.5625 C 6.867188 -47.519531 8.65625 -50.9375 10.96875 -53.8125 C 13.289062 -56.695312 16.09375 -58.957031 19.375 -60.59375 C 22.65625 -62.238281 26.296875 -63.0625 30.296875 -63.0625 C 33.660156 -63.0625 36.488281 -62.5625 38.78125 -61.5625 C 41.082031 -60.5625 43.175781 -59.203125 45.0625 -57.484375 L 45.0625 -89.453125 Z M 61.625 -89.453125 "/></g></g></g><g fill="rgb(100%, 100%, 100%)" fill-opacity="1"><g transform="translate(418.259657, 185.550011)"><g><path d="M 4.5 -8.703125 C 4.5 -10.023438 4.75 -11.273438 5.25 -12.453125 C 5.75 -13.628906 6.4375 -14.644531 7.3125 -15.5 C 8.195312 -16.363281 9.226562 -17.046875 10.40625 -17.546875 C 11.59375 -18.046875 12.882812 -18.296875 14.28125 -18.296875 C 15.632812 -18.296875 16.910156 -18.046875 18.109375 -17.546875 C 19.316406 -17.046875 20.359375 -16.363281 21.234375 -15.5 C 22.117188 -14.644531 22.8125 -13.628906 23.3125 -12.453125 C 23.8125 -11.273438 24.0625 -10.023438 24.0625 -8.703125 C 24.0625 -7.335938 23.8125 -6.078125 23.3125 -4.921875 C 22.8125 -3.765625 22.117188 -2.753906 21.234375 -1.890625 C 20.359375 -1.023438 19.316406 -0.351562 18.109375 0.125 C 16.910156 0.601562 15.632812 0.84375 14.28125 0.84375 C 12.882812 0.84375 11.59375 0.601562 10.40625 0.125 C 9.226562 -0.351562 8.195312 -1.023438 7.3125 -1.890625 C 6.4375 -2.753906 5.75 -3.765625 5.25 -4.921875 C 4.75 -6.078125 4.5 -7.335938 4.5 -8.703125 Z M 4.5 -8.703125 "/></g></g></g></svg>