<svg xmlns="http://www.w3.org/2000/svg" xmlns:xlink="http://www.w3.org/1999/xlink" width="1024" zoomAndPan="magnify" viewBox="0 0 768 767.999994" height="1024" preserveAspectRatio="xMidYMid meet" version="1.0"><defs><g><g id="id1"/><g id="id2"/><g id="id3"/></g></defs><rect x="-76.8" width="921.6" fill="rgb(100%, 100%, 100%)" y="-76.799999" height="921.599993" fill-opacity="1"/><rect x="-76.8" width="921.6" fill="rgb(26.669312%, 34.509277%, 74.508667%)" y="-76.799999" height="921.599993" fill-opacity="1"/><g fill="rgb(100%, 100%, 100%)" fill-opacity="1"><g transform="translate(99.20965, 459.904449)"><g><path d="M 114 -35.703125 C 115.664062 -35.703125 117.066406 -35.101562 118.203125 -33.90625 L 130.09375 -21.203125 C 124.226562 -13.734375 116.945312 -8.066406 108.25 -4.203125 C 99.550781 -0.335938 89.203125 1.59375 77.203125 1.59375 C 66.335938 1.59375 56.570312 -0.253906 47.90625 -3.953125 C 39.238281 -7.648438 31.867188 -12.796875 25.796875 -19.390625 C 19.734375 -25.992188 15.066406 -33.828125 11.796875 -42.890625 C 8.535156 -51.960938 6.90625 -61.863281 6.90625 -72.59375 C 6.90625 -79.800781 7.6875 -86.65625 9.25 -93.15625 C 10.8125 -99.65625 13.09375 -105.632812 16.09375 -111.09375 C 19.09375 -116.5625 22.707031 -121.492188 26.9375 -125.890625 C 31.175781 -130.296875 35.960938 -134.046875 41.296875 -137.140625 C 46.628906 -140.242188 52.445312 -142.613281 58.75 -144.25 C 65.050781 -145.882812 71.769531 -146.703125 78.90625 -146.703125 C 84.238281 -146.703125 89.285156 -146.234375 94.046875 -145.296875 C 98.816406 -144.367188 103.265625 -143.070312 107.390625 -141.40625 C 111.523438 -139.738281 115.34375 -137.71875 118.84375 -135.34375 C 122.34375 -132.976562 125.492188 -130.394531 128.296875 -127.59375 L 118.203125 -113.796875 C 117.597656 -112.929688 116.828125 -112.164062 115.890625 -111.5 C 114.960938 -110.832031 113.695312 -110.5 112.09375 -110.5 C 110.5 -110.5 108.882812 -111.066406 107.25 -112.203125 C 105.613281 -113.335938 103.613281 -114.601562 101.25 -116 C 98.882812 -117.394531 95.914062 -118.660156 92.34375 -119.796875 C 88.78125 -120.929688 84.265625 -121.5 78.796875 -121.5 C 72.734375 -121.5 67.164062 -120.398438 62.09375 -118.203125 C 57.03125 -116.003906 52.679688 -112.820312 49.046875 -108.65625 C 45.410156 -104.488281 42.59375 -99.367188 40.59375 -93.296875 C 38.59375 -87.234375 37.59375 -80.332031 37.59375 -72.59375 C 37.59375 -64.800781 38.675781 -57.851562 40.84375 -51.75 C 43.007812 -45.644531 45.976562 -40.492188 49.75 -36.296875 C 53.519531 -32.097656 57.921875 -28.914062 62.953125 -26.75 C 67.984375 -24.582031 73.363281 -23.5 79.09375 -23.5 C 82.5 -23.5 85.582031 -23.664062 88.34375 -24 C 91.113281 -24.332031 93.679688 -24.898438 96.046875 -25.703125 C 98.410156 -26.503906 100.644531 -27.535156 102.75 -28.796875 C 104.851562 -30.066406 106.96875 -31.664062 109.09375 -33.59375 C 109.832031 -34.195312 110.597656 -34.695312 111.390625 -35.09375 C 112.191406 -35.5 113.0625 -35.703125 114 -35.703125 Z M 114 -35.703125 "/></g></g></g><g fill="rgb(100%, 100%, 100%)" fill-opacity="1"><g transform="translate(231.006626, 459.904449)"><g><path d="M 70.90625 -23 C 75.695312 -23 79.644531 -23.582031 82.75 -24.75 C 85.851562 -25.914062 88.335938 -27.460938 90.203125 -29.390625 C 92.066406 -31.328125 93.363281 -33.546875 94.09375 -36.046875 C 94.832031 -38.546875 95.203125 -41.128906 95.203125 -43.796875 C 95.203125 -46.734375 94.765625 -49.367188 93.890625 -51.703125 C 93.023438 -54.035156 91.625 -56.015625 89.6875 -57.640625 C 87.757812 -59.273438 85.242188 -60.523438 82.140625 -61.390625 C 79.046875 -62.265625 75.234375 -62.703125 70.703125 -62.703125 L 45.203125 -62.703125 L 45.203125 -23 Z M 45.203125 -122.296875 L 45.203125 -83.09375 L 64.90625 -83.09375 C 69.101562 -83.09375 72.832031 -83.441406 76.09375 -84.140625 C 79.363281 -84.847656 82.097656 -85.96875 84.296875 -87.5 C 86.492188 -89.03125 88.175781 -91.046875 89.34375 -93.546875 C 90.507812 -96.046875 91.09375 -99.0625 91.09375 -102.59375 C 91.09375 -106.195312 90.609375 -109.265625 89.640625 -111.796875 C 88.679688 -114.328125 87.203125 -116.359375 85.203125 -117.890625 C 83.203125 -119.429688 80.664062 -120.550781 77.59375 -121.25 C 74.53125 -121.945312 70.898438 -122.296875 66.703125 -122.296875 Z M 66.703125 -145.09375 C 76.429688 -145.09375 84.742188 -144.175781 91.640625 -142.34375 C 98.546875 -140.507812 104.179688 -137.910156 108.546875 -134.546875 C 112.910156 -131.179688 116.09375 -127.097656 118.09375 -122.296875 C 120.09375 -117.492188 121.09375 -112.128906 121.09375 -106.203125 C 121.09375 -102.867188 120.609375 -99.664062 119.640625 -96.59375 C 118.679688 -93.53125 117.179688 -90.648438 115.140625 -87.953125 C 113.109375 -85.253906 110.492188 -82.800781 107.296875 -80.59375 C 104.097656 -78.394531 100.300781 -76.53125 95.90625 -75 C 105.769531 -72.664062 113.066406 -68.863281 117.796875 -63.59375 C 122.535156 -58.332031 124.90625 -51.5 124.90625 -43.09375 C 124.90625 -36.96875 123.71875 -31.269531 121.34375 -26 C 118.976562 -20.726562 115.53125 -16.160156 111 -12.296875 C 106.46875 -8.429688 100.882812 -5.414062 94.25 -3.25 C 87.613281 -1.082031 80 0 71.40625 0 L 15.203125 0 L 15.203125 -145.09375 Z M 66.703125 -145.09375 "/></g></g></g><g fill="rgb(100%, 100%, 100%)" fill-opacity="1"><g transform="translate(363.703565, 459.904449)"><g><path d="M 175.203125 -145.09375 L 175.203125 0 L 148.703125 0 L 148.703125 -89.09375 C 148.703125 -90.96875 148.75 -92.96875 148.84375 -95.09375 C 148.945312 -97.226562 149.132812 -99.394531 149.40625 -101.59375 L 107.90625 -22.90625 C 105.632812 -18.570312 102.132812 -16.40625 97.40625 -16.40625 L 93.203125 -16.40625 C 90.867188 -16.40625 88.800781 -16.953125 87 -18.046875 C 85.195312 -19.148438 83.765625 -20.769531 82.703125 -22.90625 L 41 -101.90625 C 41.195312 -99.570312 41.363281 -97.320312 41.5 -95.15625 C 41.632812 -92.988281 41.703125 -90.96875 41.703125 -89.09375 L 41.703125 0 L 15.203125 0 L 15.203125 -145.09375 L 38 -145.09375 C 39.269531 -145.09375 40.40625 -145.0625 41.40625 -145 C 42.40625 -144.9375 43.285156 -144.753906 44.046875 -144.453125 C 44.816406 -144.148438 45.515625 -143.679688 46.140625 -143.046875 C 46.773438 -142.410156 47.394531 -141.53125 48 -140.40625 L 88.59375 -63 C 89.863281 -60.664062 91.046875 -58.265625 92.140625 -55.796875 C 93.242188 -53.328125 94.296875 -50.796875 95.296875 -48.203125 C 96.296875 -50.867188 97.34375 -53.46875 98.4375 -56 C 99.539062 -58.53125 100.726562 -60.960938 102 -63.296875 L 142.296875 -140.40625 C 142.898438 -141.53125 143.535156 -142.410156 144.203125 -143.046875 C 144.867188 -143.679688 145.582031 -144.148438 146.34375 -144.453125 C 147.113281 -144.753906 147.984375 -144.9375 148.953125 -145 C 149.921875 -145.0625 151.070312 -145.09375 152.40625 -145.09375 Z M 175.203125 -145.09375 "/></g></g></g><g fill="rgb(100%, 100%, 100%)" fill-opacity="1"><g transform="translate(553.999165, 459.904449)"><g><path d="M 45.40625 -121.59375 L 45.40625 -84.296875 L 93.796875 -84.296875 L 93.796875 -61.59375 L 45.40625 -61.59375 L 45.40625 -23.5 L 107.59375 -23.5 L 107.59375 0 L 15.203125 0 L 15.203125 -145.09375 L 107.59375 -145.09375 L 107.59375 -121.59375 Z M 45.40625 -121.59375 "/></g></g></g><g fill="rgb(100%, 100%, 100%)" fill-opacity="1"><g transform="translate(239.354171, 599.404442)"><g><path d="M 57.375 -34.4375 L 47.5625 -62.1875 C 46.976562 -63.644531 46.363281 -65.351562 45.71875 -67.3125 C 45.070312 -69.269531 44.457031 -71.394531 43.875 -73.6875 C 43.289062 -71.351562 42.675781 -69.195312 42.03125 -67.21875 C 41.382812 -65.238281 40.769531 -63.519531 40.1875 -62.0625 L 30.4375 -34.4375 Z M 88.875 0 L 74.3125 0 C 72.6875 0 71.363281 -0.382812 70.34375 -1.15625 C 69.320312 -1.925781 68.5625 -2.914062 68.0625 -4.125 L 61.9375 -21.4375 L 25.8125 -21.4375 L 19.6875 -4.125 C 19.269531 -3.082031 18.539062 -2.132812 17.5 -1.28125 C 16.457031 -0.425781 15.144531 0 13.5625 0 L -1.125 0 L 34.3125 -90.6875 L 53.5 -90.6875 Z M 88.875 0 "/></g></g></g><g fill="rgb(100%, 100%, 100%)" fill-opacity="1"><g transform="translate(327.098559, 599.404442)"><g><path d="M 24.5 -93.1875 L 24.5 0 L 7.25 0 L 7.25 -93.1875 Z M 24.5 -93.1875 "/></g></g></g><g fill="rgb(100%, 100%, 100%)" fill-opacity="1"><g transform="translate(358.846527, 599.404442)"><g><path d="M 24.875 -64.4375 L 24.875 0 L 7.625 0 L 7.625 -64.4375 Z M 26.9375 -82.75 C 26.9375 -81.289062 26.644531 -79.9375 26.0625 -78.6875 C 25.476562 -77.4375 24.695312 -76.332031 23.71875 -75.375 C 22.738281 -74.414062 21.59375 -73.664062 20.28125 -73.125 C 18.96875 -72.582031 17.5625 -72.3125 16.0625 -72.3125 C 14.644531 -72.3125 13.300781 -72.582031 12.03125 -73.125 C 10.757812 -73.664062 9.644531 -74.414062 8.6875 -75.375 C 7.726562 -76.332031 6.96875 -77.4375 6.40625 -78.6875 C 5.84375 -79.9375 5.5625 -81.289062 5.5625 -82.75 C 5.5625 -84.207031 5.84375 -85.570312 6.40625 -86.84375 C 6.96875 -88.113281 7.726562 -89.226562 8.6875 -90.1875 C 9.644531 -91.144531 10.757812 -91.894531 12.03125 -92.4375 C 13.300781 -92.976562 14.644531 -93.25 16.0625 -93.25 C 17.5625 -93.25 18.96875 -92.976562 20.28125 -92.4375 C 21.59375 -91.894531 22.738281 -91.144531 23.71875 -90.1875 C 24.695312 -89.226562 25.476562 -88.113281 26.0625 -86.84375 C 26.644531 -85.570312 26.9375 -84.207031 26.9375 -82.75 Z M 26.9375 -82.75 "/></g></g></g><g fill="rgb(100%, 100%, 100%)" fill-opacity="1"><g transform="translate(391.34445, 599.404442)"><g><path d="M 31.125 -34.625 C 34.664062 -34.625 37.28125 -35.519531 38.96875 -37.3125 C 40.65625 -39.101562 41.5 -41.414062 41.5 -44.25 C 41.5 -47.207031 40.65625 -49.53125 38.96875 -51.21875 C 37.28125 -52.90625 34.664062 -53.75 31.125 -53.75 C 27.582031 -53.75 24.976562 -52.90625 23.3125 -51.21875 C 21.644531 -49.53125 20.8125 -47.207031 20.8125 -44.25 C 20.8125 -41.457031 21.65625 -39.15625 23.34375 -37.34375 C 25.03125 -35.53125 27.625 -34.625 31.125 -34.625 Z M 47.4375 2.625 C 47.4375 1.5 47.082031 0.582031 46.375 -0.125 C 45.664062 -0.832031 44.71875 -1.394531 43.53125 -1.8125 C 42.34375 -2.226562 40.9375 -2.53125 39.3125 -2.71875 C 37.6875 -2.90625 35.957031 -3.050781 34.125 -3.15625 C 32.289062 -3.257812 30.394531 -3.351562 28.4375 -3.4375 C 26.476562 -3.519531 24.5625 -3.664062 22.6875 -3.875 C 21.226562 -3 20.03125 -1.96875 19.09375 -0.78125 C 18.15625 0.40625 17.6875 1.75 17.6875 3.25 C 17.6875 4.289062 17.925781 5.25 18.40625 6.125 C 18.882812 7 19.6875 7.75 20.8125 8.375 C 21.9375 9 23.414062 9.488281 25.25 9.84375 C 27.082031 10.195312 29.375 10.375 32.125 10.375 C 34.957031 10.375 37.351562 10.1875 39.3125 9.8125 C 41.269531 9.4375 42.851562 8.90625 44.0625 8.21875 C 45.269531 7.53125 46.132812 6.707031 46.65625 5.75 C 47.175781 4.789062 47.4375 3.75 47.4375 2.625 Z M 64.5625 -62.3125 L 64.5625 -56 C 64.5625 -55 64.28125 -54.207031 63.71875 -53.625 C 63.15625 -53.039062 62.226562 -52.601562 60.9375 -52.3125 L 55.6875 -51.25 C 56.394531 -49.207031 56.75 -47.019531 56.75 -44.6875 C 56.75 -41.476562 56.09375 -38.59375 54.78125 -36.03125 C 53.46875 -33.46875 51.664062 -31.28125 49.375 -29.46875 C 47.082031 -27.65625 44.375 -26.257812 41.25 -25.28125 C 38.125 -24.300781 34.75 -23.8125 31.125 -23.8125 C 28.832031 -23.8125 26.6875 -24 24.6875 -24.375 C 22.9375 -23.289062 22.0625 -22.101562 22.0625 -20.8125 C 22.0625 -19.601562 22.65625 -18.726562 23.84375 -18.1875 C 25.03125 -17.644531 26.59375 -17.257812 28.53125 -17.03125 C 30.46875 -16.800781 32.675781 -16.65625 35.15625 -16.59375 C 37.632812 -16.53125 40.15625 -16.394531 42.71875 -16.1875 C 45.28125 -15.976562 47.800781 -15.613281 50.28125 -15.09375 C 52.757812 -14.570312 54.96875 -13.71875 56.90625 -12.53125 C 58.84375 -11.34375 60.40625 -9.769531 61.59375 -7.8125 C 62.78125 -5.851562 63.375 -3.332031 63.375 -0.25 C 63.375 2.625 62.664062 5.414062 61.25 8.125 C 59.832031 10.832031 57.78125 13.25 55.09375 15.375 C 52.40625 17.5 49.101562 19.207031 45.1875 20.5 C 41.269531 21.789062 36.8125 22.4375 31.8125 22.4375 C 26.851562 22.4375 22.550781 21.96875 18.90625 21.03125 C 15.257812 20.09375 12.238281 18.84375 9.84375 17.28125 C 7.445312 15.71875 5.664062 13.914062 4.5 11.875 C 3.332031 9.832031 2.75 7.707031 2.75 5.5 C 2.75 2.625 3.625 0.1875 5.375 -1.8125 C 7.125 -3.8125 9.539062 -5.414062 12.625 -6.625 C 11 -7.539062 9.695312 -8.738281 8.71875 -10.21875 C 7.738281 -11.695312 7.25 -13.625 7.25 -16 C 7.25 -17.914062 7.945312 -19.9375 9.34375 -22.0625 C 10.738281 -24.1875 12.894531 -25.957031 15.8125 -27.375 C 12.519531 -29.125 9.914062 -31.46875 8 -34.40625 C 6.082031 -37.34375 5.125 -40.769531 5.125 -44.6875 C 5.125 -47.894531 5.78125 -50.789062 7.09375 -53.375 C 8.40625 -55.957031 10.226562 -58.15625 12.5625 -59.96875 C 14.894531 -61.78125 17.644531 -63.164062 20.8125 -64.125 C 23.976562 -65.082031 27.414062 -65.5625 31.125 -65.5625 C 36.625 -65.5625 41.476562 -64.476562 45.6875 -62.3125 Z M 64.5625 -62.3125 "/></g></g></g><g fill="rgb(100%, 100%, 100%)" fill-opacity="1"><g transform="translate(457.777697, 599.404442)"><g><path d="M 23.125 -56.9375 C 24.414062 -58.1875 25.757812 -59.332031 27.15625 -60.375 C 28.550781 -61.414062 30.03125 -62.3125 31.59375 -63.0625 C 33.15625 -63.8125 34.84375 -64.394531 36.65625 -64.8125 C 38.46875 -65.226562 40.4375 -65.4375 42.5625 -65.4375 C 46.0625 -65.4375 49.164062 -64.832031 51.875 -63.625 C 54.582031 -62.414062 56.863281 -60.726562 58.71875 -58.5625 C 60.570312 -56.394531 61.96875 -53.8125 62.90625 -50.8125 C 63.84375 -47.8125 64.3125 -44.519531 64.3125 -40.9375 L 64.3125 0 L 47.125 0 L 47.125 -40.9375 C 47.125 -44.519531 46.289062 -47.300781 44.625 -49.28125 C 42.957031 -51.257812 40.5 -52.25 37.25 -52.25 C 34.832031 -52.25 32.5625 -51.726562 30.4375 -50.6875 C 28.3125 -49.644531 26.289062 -48.1875 24.375 -46.3125 L 24.375 0 L 7.125 0 L 7.125 -64.4375 L 17.75 -64.4375 C 19.914062 -64.4375 21.351562 -63.4375 22.0625 -61.4375 Z M 23.125 -56.9375 "/></g></g></g><g fill="rgb(100%, 100%, 100%)" fill-opacity="1"><g transform="translate(321.179752, 185.550246)"><g><path d="M 4.5 -8.703125 C 4.5 -10.023438 4.75 -11.273438 5.25 -12.453125 C 5.75 -13.628906 6.4375 -14.644531 7.3125 -15.5 C 8.195312 -16.363281 9.226562 -17.046875 10.40625 -17.546875 C 11.59375 -18.046875 12.882812 -18.296875 14.28125 -18.296875 C 15.632812 -18.296875 16.910156 -18.046875 18.109375 -17.546875 C 19.316406 -17.046875 20.359375 -16.363281 21.234375 -15.5 C 22.117188 -14.644531 22.8125 -13.628906 23.3125 -12.453125 C 23.8125 -11.273438 24.0625 -10.023438 24.0625 -8.703125 C 24.0625 -7.335938 23.8125 -6.078125 23.3125 -4.921875 C 22.8125 -3.765625 22.117188 -2.753906 21.234375 -1.890625 C 20.359375 -1.023438 19.316406 -0.351562 18.109375 0.125 C 16.910156 0.601562 15.632812 0.84375 14.28125 0.84375 C 12.882812 0.84375 11.59375 0.601562 10.40625 0.125 C 9.226562 -0.351562 8.195312 -1.023438 7.3125 -1.890625 C 6.4375 -2.753906 5.75 -3.765625 5.25 -4.921875 C 4.75 -6.078125 4.5 -7.335938 4.5 -8.703125 Z M 4.5 -8.703125 "/></g></g></g><g fill="rgb(100%, 100%, 100%)" fill-opacity="1"><g transform="translate(349.739728, 185.550246)"><g><path d="M 45.0625 -45.78125 C 43.5 -47.582031 41.804688 -48.84375 39.984375 -49.5625 C 38.171875 -50.28125 36.242188 -50.640625 34.203125 -50.640625 C 32.203125 -50.640625 30.378906 -50.257812 28.734375 -49.5 C 27.097656 -48.738281 25.6875 -47.546875 24.5 -45.921875 C 23.320312 -44.304688 22.410156 -42.238281 21.765625 -39.71875 C 21.128906 -37.195312 20.8125 -34.195312 20.8125 -30.71875 C 20.8125 -27.28125 21.070312 -24.359375 21.59375 -21.953125 C 22.113281 -19.554688 22.863281 -17.617188 23.84375 -16.140625 C 24.820312 -14.660156 26.007812 -13.585938 27.40625 -12.921875 C 28.8125 -12.265625 30.375 -11.9375 32.09375 -11.9375 C 35.019531 -11.9375 37.472656 -12.515625 39.453125 -13.671875 C 41.429688 -14.835938 43.300781 -16.476562 45.0625 -18.59375 Z M 61.625 -89.453125 L 61.625 0 L 51.421875 0 C 49.296875 0 47.9375 -0.957031 47.34375 -2.875 L 45.953125 -8.28125 C 44.710938 -6.914062 43.398438 -5.671875 42.015625 -4.546875 C 40.640625 -3.429688 39.148438 -2.460938 37.546875 -1.640625 C 35.953125 -0.828125 34.234375 -0.203125 32.390625 0.234375 C 30.554688 0.679688 28.5625 0.90625 26.40625 0.90625 C 23.082031 0.90625 20.039062 0.207031 17.28125 -1.1875 C 14.519531 -2.59375 12.128906 -4.644531 10.109375 -7.34375 C 8.085938 -10.050781 6.515625 -13.363281 5.390625 -17.28125 C 4.273438 -21.195312 3.71875 -25.675781 3.71875 -30.71875 C 3.71875 -35.320312 4.347656 -39.601562 5.609375 -43.5625 C 6.867188 -47.519531 8.65625 -50.9375 10.96875 -53.8125 C 13.289062 -56.695312 16.09375 -58.957031 19.375 -60.59375 C 22.65625 -62.238281 26.296875 -63.0625 30.296875 -63.0625 C 33.660156 -63.0625 36.488281 -62.5625 38.78125 -61.5625 C 41.082031 -60.5625 43.175781 -59.203125 45.0625 -57.484375 L 45.0625 -89.453125 Z M 61.625 -89.453125 "/></g></g></g><g fill="rgb(100%, 100%, 100%)" fill-opacity="1"><g transform="translate(418.259657, 185.550246)"><g><path d="M 4.5 -8.703125 C 4.5 -10.023438 4.75 -11.273438 5.25 -12.453125 C 5.75 -13.628906 6.4375 -14.644531 7.3125 -15.5 C 8.195312 -16.363281 9.226562 -17.046875 10.40625 -17.546875 C 11.59375 -18.046875 12.882812 -18.296875 14.28125 -18.296875 C 15.632812 -18.296875 16.910156 -18.046875 18.109375 -17.546875 C 19.316406 -17.046875 20.359375 -16.363281 21.234375 -15.5 C 22.117188 -14.644531 22.8125 -13.628906 23.3125 -12.453125 C 23.8125 -11.273438 24.0625 -10.023438 24.0625 -8.703125 C 24.0625 -7.335938 23.8125 -6.078125 23.3125 -4.921875 C 22.8125 -3.765625 22.117188 -2.753906 21.234375 -1.890625 C 20.359375 -1.023438 19.316406 -0.351562 18.109375 0.125 C 16.910156 0.601562 15.632812 0.84375 14.28125 0.84375 C 12.882812 0.84375 11.59375 0.601562 10.40625 0.125 C 9.226562 -0.351562 8.195312 -1.023438 7.3125 -1.890625 C 6.4375 -2.753906 5.75 -3.765625 5.25 -4.921875 C 4.75 -6.078125 4.5 -7.335938 4.5 -8.703125 Z M 4.5 -8.703125 "/></g></g></g></svg>