<svg xmlns="http://www.w3.org/2000/svg" xmlns:xlink="http://www.w3.org/1999/xlink" width="1024" zoomAndPan="magnify" viewBox="0 0 768 767.999994" height="1024" preserveAspectRatio="xMidYMid meet" version="1.0"><defs><g><g id="id1"/><g id="id2"/><g id="id3"/></g></defs><rect x="-76.8" width="921.6" fill="rgb(100%, 100%, 100%)" y="-76.799999" height="921.599993" fill-opacity="1"/><rect x="-76.8" width="921.6" fill="rgb(26.669312%, 34.509277%, 74.508667%)" y="-76.799999" height="921.599993" fill-opacity="1"/><g fill="rgb(100%, 100%, 100%)" fill-opacity="1"><g transform="translate(99.20965, 459.904216)"><g><path d="M 114 -35.703125 C 115.664062 -35.703125 117.066406 -35.101562 118.203125 -33.90625 L 130.09375 -21.203125 C 124.226562 -13.734375 116.945312 -8.066406 108.25 -4.203125 C 99.550781 -0.335938 89.203125 1.59375 77.203125 1.59375 C 66.335938 1.59375 56.570312 -0.253906 47.90625 -3.953125 C 39.238281 -7.648438 31.867188 -12.796875 25.796875 -19.390625 C 19.734375 -25.992188 15.066406 -33.828125 11.796875 -42.890625 C 8.535156 -51.960938 6.90625 -61.863281 6.90625 -72.59375 C 6.90625 -79.800781 7.6875 -86.65625 9.25 -93.15625 C 10.8125 -99.65625 13.09375 -105.632812 16.09375 -111.09375 C 19.09375 -116.5625 22.707031 -121.492188 26.9375 -125.890625 C 31.175781 -130.296875 35.960938 -134.046875 41.296875 -137.140625 C 46.628906 -140.242188 52.445312 -142.613281 58.75 -144.25 C 65.050781 -145.882812 71.769531 -146.703125 78.90625 -146.703125 C 84.238281 -146.703125 89.285156 -146.234375 94.046875 -145.296875 C 98.816406 -144.367188 103.265625 -143.070312 107.390625 -141.40625 C 111.523438 -139.738281 115.34375 -137.71875 118.84375 -135.34375 C 122.34375 -132.976562 125.492188 -130.394531 128.296875 -127.59375 L 118.203125 -113.796875 C 117.597656 -112.929688 116.828125 -112.164062 115.890625 -111.5 C 114.960938 -110.832031 113.695312 -110.5 112.09375 -110.5 C 110.5 -110.5 108.882812 -111.066406 107.25 -112.203125 C 105.613281 -113.335938 103.613281 -114.601562 101.25 -116 C 98.882812 -117.394531 95.914062 -118.660156 92.34375 -119.796875 C 88.78125 -120.929688 84.265625 -121.5 78.796875 -121.5 C 72.734375 -121.5 67.164062 -120.398438 62.09375 -118.203125 C 57.03125 -116.003906 52.679688 -112.820312 49.046875 -108.65625 C 45.410156 -104.488281 42.59375 -99.367188 40.59375 -93.296875 C 38.59375 -87.234375 37.59375 -80.332031 37.59375 -72.59375 C 37.59375 -64.800781 38.675781 -57.851562 40.84375 -51.75 C 43.007812 -45.644531 45.976562 -40.492188 49.75 -36.296875 C 53.519531 -32.097656 57.921875 -28.914062 62.953125 -26.75 C 67.984375 -24.582031 73.363281 -23.5 79.09375 -23.5 C 82.5 -23.5 85.582031 -23.664062 88.34375 -24 C 91.113281 -24.332031 93.679688 -24.898438 96.046875 -25.703125 C 98.410156 -26.503906 100.644531 -27.535156 102.75 -28.796875 C 104.851562 -30.066406 106.96875 -31.664062 109.09375 -33.59375 C 109.832031 -34.195312 110.597656 -34.695312 111.390625 -35.09375 C 112.191406 -35.5 113.0625 -35.703125 114 -35.703125 Z M 114 -35.703125 "/></g></g></g><g fill="rgb(100%, 100%, 100%)" fill-opacity="1"><g transform="translate(231.006626, 459.904216)"><g><path d="M 70.90625 -23 C 75.695312 -23 79.644531 -23.582031 82.75 -24.75 C 85.851562 -25.914062 88.335938 -27.460938 90.203125 -29.390625 C 92.066406 -31.328125 93.363281 -33.546875 94.09375 -36.046875 C 94.832031 -38.546875 95.203125 -41.128906 95.203125 -43.796875 C 95.203125 -46.734375 94.765625 -49.367188 93.890625 -51.703125 C 93.023438 -54.035156 91.625 -56.015625 89.6875 -57.640625 C 87.757812 -59.273438 85.242188 -60.523438 82.140625 -61.390625 C 79.046875 -62.265625 75.234375 -62.703125 70.703125 -62.703125 L 45.203125 -62.703125 L 45.203125 -23 Z M 45.203125 -122.296875 L 45.203125 -83.09375 L 64.90625 -83.09375 C 69.101562 -83.09375 72.832031 -83.441406 76.09375 -84.140625 C 79.363281 -84.847656 82.097656 -85.96875 84.296875 -87.5 C 86.492188 -89.03125 88.175781 -91.046875 89.34375 -93.546875 C 90.507812 -96.046875 91.09375 -99.0625 91.09375 -102.59375 C 91.09375 -106.195312 90.609375 -109.265625 89.640625 -111.796875 C 88.679688 -114.328125 87.203125 -116.359375 85.203125 -117.890625 C 83.203125 -119.429688 80.664062 -120.550781 77.59375 -121.25 C 74.53125 -121.945312 70.898438 -122.296875 66.703125 -122.296875 Z M 66.703125 -145.09375 C 76.429688 -145.09375 84.742188 -144.175781 91.640625 -142.34375 C 98.546875 -140.507812 104.179688 -137.910156 108.546875 -134.546875 C 112.910156 -131.179688 116.09375 -127.097656 118.09375 -122.296875 C 120.09375 -117.492188 121.09375 -112.128906 121.09375 -106.203125 C 121.09375 -102.867188 120.609375 -99.664062 119.640625 -96.59375 C 118.679688 -93.53125 117.179688 -90.648438 115.140625 -87.953125 C 113.109375 -85.253906 110.492188 -82.800781 107.296875 -80.59375 C 104.097656 -78.394531 100.300781 -76.53125 95.90625 -75 C 105.769531 -72.664062 113.066406 -68.863281 117.796875 -63.59375 C 122.535156 -58.332031 124.90625 -51.5 124.90625 -43.09375 C 124.90625 -36.96875 123.71875 -31.269531 121.34375 -26 C 118.976562 -20.726562 115.53125 -16.160156 111 -12.296875 C 106.46875 -8.429688 100.882812 -5.414062 94.25 -3.25 C 87.613281 -1.082031 80 0 71.40625 0 L 15.203125 0 L 15.203125 -145.09375 Z M 66.703125 -145.09375 "/></g></g></g><g fill="rgb(100%, 100%, 100%)" fill-opacity="1"><g transform="translate(363.703565, 459.904216)"><g><path d="M 175.203125 -145.09375 L 175.203125 0 L 148.703125 0 L 148.703125 -89.09375 C 148.703125 -90.96875 148.75 -92.96875 148.84375 -95.09375 C 148.945312 -97.226562 149.132812 -99.394531 149.40625 -101.59375 L 107.90625 -22.90625 C 105.632812 -18.570312 102.132812 -16.40625 97.40625 -16.40625 L 93.203125 -16.40625 C 90.867188 -16.40625 88.800781 -16.953125 87 -18.046875 C 85.195312 -19.148438 83.765625 -20.769531 82.703125 -22.90625 L 41 -101.90625 C 41.195312 -99.570312 41.363281 -97.320312 41.5 -95.15625 C 41.632812 -92.988281 41.703125 -90.96875 41.703125 -89.09375 L 41.703125 0 L 15.203125 0 L 15.203125 -145.09375 L 38 -145.09375 C 39.269531 -145.09375 40.40625 -145.0625 41.40625 -145 C 42.40625 -144.9375 43.285156 -144.753906 44.046875 -144.453125 C 44.816406 -144.148438 45.515625 -143.679688 46.140625 -143.046875 C 46.773438 -142.410156 47.394531 -141.53125 48 -140.40625 L 88.59375 -63 C 89.863281 -60.664062 91.046875 -58.265625 92.140625 -55.796875 C 93.242188 -53.328125 94.296875 -50.796875 95.296875 -48.203125 C 96.296875 -50.867188 97.34375 -53.46875 98.4375 -56 C 99.539062 -58.53125 100.726562 -60.960938 102 -63.296875 L 142.296875 -140.40625 C 142.898438 -141.53125 143.535156 -142.410156 144.203125 -143.046875 C 144.867188 -143.679688 145.582031 -144.148438 146.34375 -144.453125 C 147.113281 -144.753906 147.984375 -144.9375 148.953125 -145 C 149.921875 -145.0625 151.070312 -145.09375 152.40625 -145.09375 Z M 175.203125 -145.09375 "/></g></g></g><g fill="rgb(100%, 100%, 100%)" fill-opacity="1"><g transform="translate(553.999165, 459.904216)"><g><path d="M 45.40625 -121.59375 L 45.40625 -84.296875 L 93.796875 -84.296875 L 93.796875 -61.59375 L 45.40625 -61.59375 L 45.40625 -23.5 L 107.59375 -23.5 L 107.59375 0 L 15.203125 0 L 15.203125 -145.09375 L 107.59375 -145.09375 L 107.59375 -121.59375 Z M 45.40625 -121.59375 "/></g></g></g><g fill="rgb(100%, 100%, 100%)" fill-opacity="1"><g transform="translate(88.990901, 599.40421)"><g><path d="M 73.6875 -75.5625 L 47.1875 -75.5625 L 47.1875 0 L 28.375 0 L 28.375 -75.5625 L 1.875 -75.5625 L 1.875 -90.6875 L 73.6875 -90.6875 Z M 73.6875 -75.5625 "/></g></g></g><g fill="rgb(100%, 100%, 100%)" fill-opacity="1"><g transform="translate(164.486072, 599.40421)"><g><path d="M 24.875 -64.4375 L 24.875 0 L 7.625 0 L 7.625 -64.4375 Z M 26.9375 -82.75 C 26.9375 -81.289062 26.644531 -79.9375 26.0625 -78.6875 C 25.476562 -77.4375 24.695312 -76.332031 23.71875 -75.375 C 22.738281 -74.414062 21.59375 -73.664062 20.28125 -73.125 C 18.96875 -72.582031 17.5625 -72.3125 16.0625 -72.3125 C 14.644531 -72.3125 13.300781 -72.582031 12.03125 -73.125 C 10.757812 -73.664062 9.644531 -74.414062 8.6875 -75.375 C 7.726562 -76.332031 6.96875 -77.4375 6.40625 -78.6875 C 5.84375 -79.9375 5.5625 -81.289062 5.5625 -82.75 C 5.5625 -84.207031 5.84375 -85.570312 6.40625 -86.84375 C 6.96875 -88.113281 7.726562 -89.226562 8.6875 -90.1875 C 9.644531 -91.144531 10.757812 -91.894531 12.03125 -92.4375 C 13.300781 -92.976562 14.644531 -93.25 16.0625 -93.25 C 17.5625 -93.25 18.96875 -92.976562 20.28125 -92.4375 C 21.59375 -91.894531 22.738281 -91.144531 23.71875 -90.1875 C 24.695312 -89.226562 25.476562 -88.113281 26.0625 -86.84375 C 26.644531 -85.570312 26.9375 -84.207031 26.9375 -82.75 Z M 26.9375 -82.75 "/></g></g></g><g fill="rgb(100%, 100%, 100%)" fill-opacity="1"><g transform="translate(196.983995, 599.40421)"><g><path d="M 7.125 0 L 7.125 -64.4375 L 17.75 -64.4375 C 19.914062 -64.4375 21.351562 -63.4375 22.0625 -61.4375 L 23.0625 -57.25 C 24.1875 -58.414062 25.34375 -59.5 26.53125 -60.5 C 27.71875 -61.5 29 -62.363281 30.375 -63.09375 C 31.75 -63.820312 33.238281 -64.394531 34.84375 -64.8125 C 36.445312 -65.226562 38.1875 -65.4375 40.0625 -65.4375 C 44.019531 -65.4375 47.289062 -64.382812 49.875 -62.28125 C 52.457031 -60.175781 54.414062 -57.375 55.75 -53.875 C 56.789062 -55.914062 58.070312 -57.675781 59.59375 -59.15625 C 61.113281 -60.632812 62.78125 -61.832031 64.59375 -62.75 C 66.40625 -63.664062 68.320312 -64.34375 70.34375 -64.78125 C 72.363281 -65.21875 74.394531 -65.4375 76.4375 -65.4375 C 80.0625 -65.4375 83.269531 -64.894531 86.0625 -63.8125 C 88.851562 -62.726562 91.195312 -61.132812 93.09375 -59.03125 C 94.988281 -56.925781 96.4375 -54.351562 97.4375 -51.3125 C 98.4375 -48.269531 98.9375 -44.8125 98.9375 -40.9375 L 98.9375 0 L 81.6875 0 L 81.6875 -40.9375 C 81.6875 -48.476562 78.457031 -52.25 72 -52.25 C 70.539062 -52.25 69.195312 -52.007812 67.96875 -51.53125 C 66.738281 -51.050781 65.65625 -50.332031 64.71875 -49.375 C 63.78125 -48.414062 63.050781 -47.226562 62.53125 -45.8125 C 62.007812 -44.394531 61.75 -42.769531 61.75 -40.9375 L 61.75 0 L 44.5 0 L 44.5 -40.9375 C 44.5 -45.019531 43.695312 -47.925781 42.09375 -49.65625 C 40.488281 -51.382812 38.125 -52.25 35 -52.25 C 33 -52.25 31.113281 -51.78125 29.34375 -50.84375 C 27.570312 -49.90625 25.914062 -48.601562 24.375 -46.9375 L 24.375 0 Z M 7.125 0 "/></g></g></g><g fill="rgb(100%, 100%, 100%)" fill-opacity="1"><g transform="translate(302.414756, 599.40421)"><g><path d="M 48 -39.8125 C 48 -41.601562 47.757812 -43.3125 47.28125 -44.9375 C 46.800781 -46.5625 46.039062 -48 45 -49.25 C 43.957031 -50.5 42.644531 -51.488281 41.0625 -52.21875 C 39.476562 -52.945312 37.582031 -53.3125 35.375 -53.3125 C 31.25 -53.3125 28.019531 -52.144531 25.6875 -49.8125 C 23.351562 -47.476562 21.832031 -44.144531 21.125 -39.8125 Z M 20.875 -29.5625 C 21.414062 -23.519531 23.132812 -19.101562 26.03125 -16.3125 C 28.925781 -13.519531 32.707031 -12.125 37.375 -12.125 C 39.75 -12.125 41.800781 -12.40625 43.53125 -12.96875 C 45.257812 -13.53125 46.78125 -14.15625 48.09375 -14.84375 C 49.40625 -15.53125 50.59375 -16.15625 51.65625 -16.71875 C 52.71875 -17.28125 53.769531 -17.5625 54.8125 -17.5625 C 56.144531 -17.5625 57.1875 -17.0625 57.9375 -16.0625 L 62.9375 -9.8125 C 61.101562 -7.6875 59.082031 -5.925781 56.875 -4.53125 C 54.664062 -3.132812 52.375 -2.03125 50 -1.21875 C 47.625 -0.40625 45.226562 0.15625 42.8125 0.46875 C 40.394531 0.78125 38.0625 0.9375 35.8125 0.9375 C 31.3125 0.9375 27.113281 0.195312 23.21875 -1.28125 C 19.320312 -2.757812 15.925781 -4.945312 13.03125 -7.84375 C 10.132812 -10.738281 7.851562 -14.332031 6.1875 -18.625 C 4.519531 -22.914062 3.6875 -27.894531 3.6875 -33.5625 C 3.6875 -37.9375 4.40625 -42.0625 5.84375 -45.9375 C 7.28125 -49.8125 9.351562 -53.1875 12.0625 -56.0625 C 14.769531 -58.9375 18.0625 -61.21875 21.9375 -62.90625 C 25.8125 -64.59375 30.1875 -65.4375 35.0625 -65.4375 C 39.1875 -65.4375 42.988281 -64.78125 46.46875 -63.46875 C 49.945312 -62.15625 52.945312 -60.25 55.46875 -57.75 C 57.988281 -55.25 59.945312 -52.175781 61.34375 -48.53125 C 62.738281 -44.882812 63.4375 -40.726562 63.4375 -36.0625 C 63.4375 -34.769531 63.375 -33.707031 63.25 -32.875 C 63.125 -32.039062 62.914062 -31.375 62.625 -30.875 C 62.332031 -30.375 61.9375 -30.03125 61.4375 -29.84375 C 60.9375 -29.65625 60.289062 -29.5625 59.5 -29.5625 Z M 20.875 -29.5625 "/></g></g></g><g fill="rgb(100%, 100%, 100%)" fill-opacity="1"><g transform="translate(369.410457, 599.40421)"><g><path d="M 73.6875 -75.5625 L 47.1875 -75.5625 L 47.1875 0 L 28.375 0 L 28.375 -75.5625 L 1.875 -75.5625 L 1.875 -90.6875 L 73.6875 -90.6875 Z M 73.6875 -75.5625 "/></g></g></g><g fill="rgb(100%, 100%, 100%)" fill-opacity="1"><g transform="translate(444.905616, 599.40421)"><g><path d="M 40.8125 -26.9375 C 36.601562 -26.726562 33.101562 -26.363281 30.3125 -25.84375 C 27.519531 -25.320312 25.300781 -24.644531 23.65625 -23.8125 C 22.007812 -22.976562 20.84375 -22.03125 20.15625 -20.96875 C 19.46875 -19.90625 19.125 -18.75 19.125 -17.5 C 19.125 -15 19.820312 -13.226562 21.21875 -12.1875 C 22.613281 -11.144531 24.5625 -10.625 27.0625 -10.625 C 29.9375 -10.625 32.425781 -11.132812 34.53125 -12.15625 C 36.632812 -13.175781 38.726562 -14.769531 40.8125 -16.9375 Z M 5.6875 -55.5 C 9.476562 -58.914062 13.664062 -61.46875 18.25 -63.15625 C 22.832031 -64.84375 27.789062 -65.6875 33.125 -65.6875 C 36.957031 -65.6875 40.382812 -65.0625 43.40625 -63.8125 C 46.425781 -62.5625 48.988281 -60.820312 51.09375 -58.59375 C 53.195312 -56.363281 54.8125 -53.707031 55.9375 -50.625 C 57.0625 -47.539062 57.625 -44.164062 57.625 -40.5 L 57.625 0 L 49.75 0 C 48.125 0 46.882812 -0.226562 46.03125 -0.6875 C 45.175781 -1.144531 44.476562 -2.101562 43.9375 -3.5625 L 42.5625 -7.6875 C 40.9375 -6.269531 39.363281 -5.019531 37.84375 -3.9375 C 36.320312 -2.851562 34.75 -1.945312 33.125 -1.21875 C 31.5 -0.488281 29.757812 0.0625 27.90625 0.4375 C 26.050781 0.8125 23.976562 1 21.6875 1 C 18.851562 1 16.269531 0.625 13.9375 -0.125 C 11.601562 -0.875 9.59375 -1.988281 7.90625 -3.46875 C 6.21875 -4.945312 4.914062 -6.789062 4 -9 C 3.082031 -11.207031 2.625 -13.75 2.625 -16.625 C 2.625 -19 3.226562 -21.375 4.4375 -23.75 C 5.644531 -26.125 7.71875 -28.28125 10.65625 -30.21875 C 13.59375 -32.15625 17.507812 -33.757812 22.40625 -35.03125 C 27.300781 -36.300781 33.4375 -37.019531 40.8125 -37.1875 L 40.8125 -40.5 C 40.8125 -44.539062 39.957031 -47.507812 38.25 -49.40625 C 36.539062 -51.300781 34.082031 -52.25 30.875 -52.25 C 28.5 -52.25 26.519531 -51.96875 24.9375 -51.40625 C 23.351562 -50.84375 21.96875 -50.238281 20.78125 -49.59375 C 19.59375 -48.945312 18.476562 -48.34375 17.4375 -47.78125 C 16.394531 -47.21875 15.1875 -46.9375 13.8125 -46.9375 C 12.601562 -46.9375 11.59375 -47.238281 10.78125 -47.84375 C 9.96875 -48.445312 9.289062 -49.164062 8.75 -50 Z M 5.6875 -55.5 "/></g></g></g><g fill="rgb(100%, 100%, 100%)" fill-opacity="1"><g transform="translate(508.901524, 599.40421)"><g><path d="M 24.375 -17 C 26 -15.125 27.757812 -13.8125 29.65625 -13.0625 C 31.550781 -12.3125 33.519531 -11.9375 35.5625 -11.9375 C 37.6875 -11.9375 39.613281 -12.320312 41.34375 -13.09375 C 43.070312 -13.863281 44.5625 -15.09375 45.8125 -16.78125 C 47.0625 -18.46875 48.019531 -20.664062 48.6875 -23.375 C 49.351562 -26.082031 49.6875 -29.351562 49.6875 -33.1875 C 49.6875 -36.601562 49.414062 -39.507812 48.875 -41.90625 C 48.332031 -44.300781 47.53125 -46.269531 46.46875 -47.8125 C 45.40625 -49.351562 44.101562 -50.476562 42.5625 -51.1875 C 41.019531 -51.894531 39.226562 -52.25 37.1875 -52.25 C 34.476562 -52.25 32.132812 -51.65625 30.15625 -50.46875 C 28.175781 -49.28125 26.25 -47.539062 24.375 -45.25 Z M 24.375 -57 C 26.914062 -59.539062 29.726562 -61.582031 32.8125 -63.125 C 35.894531 -64.664062 39.351562 -65.4375 43.1875 -65.4375 C 46.894531 -65.4375 50.238281 -64.695312 53.21875 -63.21875 C 56.195312 -61.738281 58.738281 -59.625 60.84375 -56.875 C 62.945312 -54.125 64.570312 -50.800781 65.71875 -46.90625 C 66.863281 -43.007812 67.4375 -38.644531 67.4375 -33.8125 C 67.4375 -28.601562 66.78125 -23.863281 65.46875 -19.59375 C 64.15625 -15.320312 62.289062 -11.664062 59.875 -8.625 C 57.457031 -5.582031 54.570312 -3.226562 51.21875 -1.5625 C 47.863281 0.101562 44.125 0.9375 40 0.9375 C 38 0.9375 36.207031 0.738281 34.625 0.34375 C 33.039062 -0.0507812 31.582031 -0.601562 30.25 -1.3125 C 28.914062 -2.019531 27.6875 -2.863281 26.5625 -3.84375 C 25.4375 -4.820312 24.375 -5.914062 23.375 -7.125 L 22.6875 -3.25 C 22.394531 -2.039062 21.914062 -1.195312 21.25 -0.71875 C 20.582031 -0.238281 19.6875 0 18.5625 0 L 7.125 0 L 7.125 -93.1875 L 24.375 -93.1875 Z M 24.375 -57 "/></g></g></g><g fill="rgb(100%, 100%, 100%)" fill-opacity="1"><g transform="translate(580.271958, 599.40421)"><g><path d="M 24.5 -93.1875 L 24.5 0 L 7.25 0 L 7.25 -93.1875 Z M 24.5 -93.1875 "/></g></g></g><g fill="rgb(100%, 100%, 100%)" fill-opacity="1"><g transform="translate(612.019926, 599.40421)"><g><path d="M 48 -39.8125 C 48 -41.601562 47.757812 -43.3125 47.28125 -44.9375 C 46.800781 -46.5625 46.039062 -48 45 -49.25 C 43.957031 -50.5 42.644531 -51.488281 41.0625 -52.21875 C 39.476562 -52.945312 37.582031 -53.3125 35.375 -53.3125 C 31.25 -53.3125 28.019531 -52.144531 25.6875 -49.8125 C 23.351562 -47.476562 21.832031 -44.144531 21.125 -39.8125 Z M 20.875 -29.5625 C 21.414062 -23.519531 23.132812 -19.101562 26.03125 -16.3125 C 28.925781 -13.519531 32.707031 -12.125 37.375 -12.125 C 39.75 -12.125 41.800781 -12.40625 43.53125 -12.96875 C 45.257812 -13.53125 46.78125 -14.15625 48.09375 -14.84375 C 49.40625 -15.53125 50.59375 -16.15625 51.65625 -16.71875 C 52.71875 -17.28125 53.769531 -17.5625 54.8125 -17.5625 C 56.144531 -17.5625 57.1875 -17.0625 57.9375 -16.0625 L 62.9375 -9.8125 C 61.101562 -7.6875 59.082031 -5.925781 56.875 -4.53125 C 54.664062 -3.132812 52.375 -2.03125 50 -1.21875 C 47.625 -0.40625 45.226562 0.15625 42.8125 0.46875 C 40.394531 0.78125 38.0625 0.9375 35.8125 0.9375 C 31.3125 0.9375 27.113281 0.195312 23.21875 -1.28125 C 19.320312 -2.757812 15.925781 -4.945312 13.03125 -7.84375 C 10.132812 -10.738281 7.851562 -14.332031 6.1875 -18.625 C 4.519531 -22.914062 3.6875 -27.894531 3.6875 -33.5625 C 3.6875 -37.9375 4.40625 -42.0625 5.84375 -45.9375 C 7.28125 -49.8125 9.351562 -53.1875 12.0625 -56.0625 C 14.769531 -58.9375 18.0625 -61.21875 21.9375 -62.90625 C 25.8125 -64.59375 30.1875 -65.4375 35.0625 -65.4375 C 39.1875 -65.4375 42.988281 -64.78125 46.46875 -63.46875 C 49.945312 -62.15625 52.945312 -60.25 55.46875 -57.75 C 57.988281 -55.25 59.945312 -52.175781 61.34375 -48.53125 C 62.738281 -44.882812 63.4375 -40.726562 63.4375 -36.0625 C 63.4375 -34.769531 63.375 -33.707031 63.25 -32.875 C 63.125 -32.039062 62.914062 -31.375 62.625 -30.875 C 62.332031 -30.375 61.9375 -30.03125 61.4375 -29.84375 C 60.9375 -29.65625 60.289062 -29.5625 59.5 -29.5625 Z M 20.875 -29.5625 "/></g></g></g><g fill="rgb(100%, 100%, 100%)" fill-opacity="1"><g transform="translate(321.179752, 185.550011)"><g><path d="M 4.5 -8.703125 C 4.5 -10.023438 4.75 -11.273438 5.25 -12.453125 C 5.75 -13.628906 6.4375 -14.644531 7.3125 -15.5 C 8.195312 -16.363281 9.226562 -17.046875 10.40625 -17.546875 C 11.59375 -18.046875 12.882812 -18.296875 14.28125 -18.296875 C 15.632812 -18.296875 16.910156 -18.046875 18.109375 -17.546875 C 19.316406 -17.046875 20.359375 -16.363281 21.234375 -15.5 C 22.117188 -14.644531 22.8125 -13.628906 23.3125 -12.453125 C 23.8125 -11.273438 24.0625 -10.023438 24.0625 -8.703125 C 24.0625 -7.335938 23.8125 -6.078125 23.3125 -4.921875 C 22.8125 -3.765625 22.117188 -2.753906 21.234375 -1.890625 C 20.359375 -1.023438 19.316406 -0.351562 18.109375 0.125 C 16.910156 0.601562 15.632812 0.84375 14.28125 0.84375 C 12.882812 0.84375 11.59375 0.601562 10.40625 0.125 C 9.226562 -0.351562 8.195312 -1.023438 7.3125 -1.890625 C 6.4375 -2.753906 5.75 -3.765625 5.25 -4.921875 C 4.75 -6.078125 4.5 -7.335938 4.5 -8.703125 Z M 4.5 -8.703125 "/></g></g></g><g fill="rgb(100%, 100%, 100%)" fill-opacity="1"><g transform="translate(349.739728, 185.550011)"><g><path d="M 45.0625 -45.78125 C 43.5 -47.582031 41.804688 -48.84375 39.984375 -49.5625 C 38.171875 -50.28125 36.242188 -50.640625 34.203125 -50.640625 C 32.203125 -50.640625 30.378906 -50.257812 28.734375 -49.5 C 27.097656 -48.738281 25.6875 -47.546875 24.5 -45.921875 C 23.320312 -44.304688 22.410156 -42.238281 21.765625 -39.71875 C 21.128906 -37.195312 20.8125 -34.195312 20.8125 -30.71875 C 20.8125 -27.28125 21.070312 -24.359375 21.59375 -21.953125 C 22.113281 -19.554688 22.863281 -17.617188 23.84375 -16.140625 C 24.820312 -14.660156 26.007812 -13.585938 27.40625 -12.921875 C 28.8125 -12.265625 30.375 -11.9375 32.09375 -11.9375 C 35.019531 -11.9375 37.472656 -12.515625 39.453125 -13.671875 C 41.429688 -14.835938 43.300781 -16.476562 45.0625 -18.59375 Z M 61.625 -89.453125 L 61.625 0 L 51.421875 0 C 49.296875 0 47.9375 -0.957031 47.34375 -2.875 L 45.953125 -8.28125 C 44.710938 -6.914062 43.398438 -5.671875 42.015625 -4.546875 C 40.640625 -3.429688 39.148438 -2.460938 37.546875 -1.640625 C 35.953125 -0.828125 34.234375 -0.203125 32.390625 0.234375 C 30.554688 0.679688 28.5625 0.90625 26.40625 0.90625 C 23.082031 0.90625 20.039062 0.207031 17.28125 -1.1875 C 14.519531 -2.59375 12.128906 -4.644531 10.109375 -7.34375 C 8.085938 -10.050781 6.515625 -13.363281 5.390625 -17.28125 C 4.273438 -21.195312 3.71875 -25.675781 3.71875 -30.71875 C 3.71875 -35.320312 4.347656 -39.601562 5.609375 -43.5625 C 6.867188 -47.519531 8.65625 -50.9375 10.96875 -53.8125 C 13.289062 -56.695312 16.09375 -58.957031 19.375 -60.59375 C 22.65625 -62.238281 26.296875 -63.0625 30.296875 -63.0625 C 33.660156 -63.0625 36.488281 -62.5625 38.78125 -61.5625 C 41.082031 -60.5625 43.175781 -59.203125 45.0625 -57.484375 L 45.0625 -89.453125 Z M 61.625 -89.453125 "/></g></g></g><g fill="rgb(100%, 100%, 100%)" fill-opacity="1"><g transform="translate(418.259657, 185.550011)"><g><path d="M 4.5 -8.703125 C 4.5 -10.023438 4.75 -11.273438 5.25 -12.453125 C 5.75 -13.628906 6.4375 -14.644531 7.3125 -15.5 C 8.195312 -16.363281 9.226562 -17.046875 10.40625 -17.546875 C 11.59375 -18.046875 12.882812 -18.296875 14.28125 -18.296875 C 15.632812 -18.296875 16.910156 -18.046875 18.109375 -17.546875 C 19.316406 -17.046875 20.359375 -16.363281 21.234375 -15.5 C 22.117188 -14.644531 22.8125 -13.628906 23.3125 -12.453125 C 23.8125 -11.273438 24.0625 -10.023438 24.0625 -8.703125 C 24.0625 -7.335938 23.8125 -6.078125 23.3125 -4.921875 C 22.8125 -3.765625 22.117188 -2.753906 21.234375 -1.890625 C 20.359375 -1.023438 19.316406 -0.351562 18.109375 0.125 C 16.910156 0.601562 15.632812 0.84375 14.28125 0.84375 C 12.882812 0.84375 11.59375 0.601562 10.40625 0.125 C 9.226562 -0.351562 8.195312 -1.023438 7.3125 -1.890625 C 6.4375 -2.753906 5.75 -3.765625 5.25 -4.921875 C 4.75 -6.078125 4.5 -7.335938 4.5 -8.703125 Z M 4.5 -8.703125 "/></g></g></g></svg>